<svg xmlns="http://www.w3.org/2000/svg" viewBox="0 0 22.71 11.45"><defs><style>.cls-1{fill:#fff;}</style></defs><g id="Layer_2" data-name="Layer 2"><g id="Layer_1-2" data-name="Layer 1"><path class="cls-1" d="M2.38,10.2a1.87,1.87,0,0,1-1.15-.35,2.14,2.14,0,0,1-.69-1A4.49,4.49,0,0,1,.3,7.31,8.24,8.24,0,0,1,.46,5.76,7.39,7.39,0,0,1,.93,4.27,5.31,5.31,0,0,1,1.7,3a3.52,3.52,0,0,1,1.08-.89A2.91,2.91,0,0,1,4.15,1.8a2.63,2.63,0,0,1,.76.11,1.87,1.87,0,0,1,.61.32,1.5,1.5,0,0,1,.4.5,1.41,1.41,0,0,1,.15.65A1.45,1.45,0,0,1,5.94,4a1.07,1.07,0,0,1-.34.41.82.82,0,0,1-.48.14,1,1,0,0,1-.27,0,.5.5,0,0,1-.23-.16A1.42,1.42,0,0,0,4.77,4a1.58,1.58,0,0,0,.06-.45,1,1,0,0,0-.12-.51.92.92,0,0,0-.32-.33,1,1,0,0,0-.51-.12,1.19,1.19,0,0,0-.81.31,2.82,2.82,0,0,0-.62.83A5.41,5.41,0,0,0,2,4.89a9.17,9.17,0,0,0-.26,1.22A9.17,9.17,0,0,0,1.68,7.2,6.68,6.68,0,0,0,1.73,8a1.87,1.87,0,0,0,.2.63A.93.93,0,0,0,2.3,9a1.14,1.14,0,0,0,.59.14,1.39,1.39,0,0,0,.46-.07,1.5,1.5,0,0,0,.43-.18.93.93,0,0,0,.3-.24v.77a3.76,3.76,0,0,1-.43.31,2.65,2.65,0,0,1-.58.3A1.8,1.8,0,0,1,2.38,10.2Zm.94,2.16a1.07,1.07,0,0,1-.64-.21.78.78,0,0,1-.32-.63h.13a1,1,0,0,0,.72-.25,1.61,1.61,0,0,0,.43-.66,3.69,3.69,0,0,0,.22-.87c.05-.31.08-.62.11-.92l.36-2.56,1.43-.21a5.81,5.81,0,0,0-.29.89c-.08.33-.16.72-.23,1.17S5.07,9.1,5,9.73a11,11,0,0,1-.24,1.2,3.5,3.5,0,0,1-.32.81,1.36,1.36,0,0,1-.45.47A1.21,1.21,0,0,1,3.32,12.36Z" transform="translate(-0.3 -0.91)"/><path class="cls-1" d="M8,10.2A1.46,1.46,0,0,1,7,9.91a1.78,1.78,0,0,1-.52-.81,4.14,4.14,0,0,1-.16-1.17,6,6,0,0,1,.23-1.67,4.55,4.55,0,0,1,.64-1.39,3.22,3.22,0,0,1,1-.93A2.31,2.31,0,0,1,9.46,3.6a3,3,0,0,1,1.16.25l1.13-.15-.9,5c0,.07,0,.16,0,.25a1.23,1.23,0,0,0,0,.26.47.47,0,0,0,.08.28.32.32,0,0,0,.27.12A.67.67,0,0,1,11,10a.77.77,0,0,1-.29.19,1.06,1.06,0,0,1-.37.06A.85.85,0,0,1,9.78,10a.73.73,0,0,1-.24-.51,2.51,2.51,0,0,1-.7.49A1.92,1.92,0,0,1,8,10.2Zm.5-.72a.89.89,0,0,0,.69-.3,2.09,2.09,0,0,0,.42-.75,5.17,5.17,0,0,0,.24-.87l.49-2.87a1.5,1.5,0,0,0-.46-.28,1.33,1.33,0,0,0-.45-.09.94.94,0,0,0-.62.22,1.89,1.89,0,0,0-.49.58A4.38,4.38,0,0,0,7.94,6a8.13,8.13,0,0,0-.21,1,10.37,10.37,0,0,0-.06,1.12,2.23,2.23,0,0,0,.17.94A.63.63,0,0,0,8.47,9.48Z" transform="translate(-0.3 -0.91)"/><path class="cls-1" d="M13,10.2a.74.74,0,0,1-.57-.22.81.81,0,0,1-.21-.6c0-.08,0-.19,0-.31s0-.27.07-.44.06-.4.11-.66.12-.58.18-1,.15-.8.25-1.31.21-1.08.34-1.73c.07-.45.14-.9.19-1.33a10.29,10.29,0,0,0,.08-1.1,2.09,2.09,0,0,0,0-.26,1.12,1.12,0,0,0,0-.21A1.11,1.11,0,0,1,13.72,1a1.26,1.26,0,0,1,.33,0,.88.88,0,0,1,.55.19.75.75,0,0,1,.25.65c0,.07,0,.19,0,.39s-.07.41-.12.66-.09.51-.14.78-.09.51-.13.73C14.24,5.24,14.1,6,14,6.58s-.2,1-.26,1.39-.11.58-.14.74,0,.27-.05.34,0,.12,0,.17a.41.41,0,0,0,.09.28.28.28,0,0,0,.25.12.57.57,0,0,1-.16.33.8.8,0,0,1-.3.19A1,1,0,0,1,13,10.2Z" transform="translate(-0.3 -0.91)"/><path class="cls-1" d="M15.78,10.2a.7.7,0,0,1-.56-.22.81.81,0,0,1-.21-.6c0-.08,0-.19,0-.31s0-.27.06-.44.07-.4.12-.66l.18-1c.07-.37.15-.8.25-1.31S15.85,4.63,16,4c.07-.45.13-.9.19-1.33a10.29,10.29,0,0,0,.08-1.1,2,2,0,0,0,0-.26.66.66,0,0,0,0-.21A1.11,1.11,0,0,1,16.47,1a1.26,1.26,0,0,1,.33,0,.87.87,0,0,1,.54.19.75.75,0,0,1,.26.65,3.65,3.65,0,0,1-.05.39c0,.19-.07.41-.11.66s-.09.51-.14.78-.09.51-.13.73c-.18.93-.33,1.68-.44,2.27s-.2,1-.26,1.39-.11.58-.14.74,0,.27,0,.34a1,1,0,0,0,0,.17.47.47,0,0,0,.08.28.3.3,0,0,0,.26.12.58.58,0,0,1-.17.33.67.67,0,0,1-.3.19A1,1,0,0,1,15.78,10.2Z" transform="translate(-0.3 -0.91)"/><path class="cls-1" d="M19.81,10.2a2.08,2.08,0,0,1-1-.19,1.55,1.55,0,0,1-.59-.51,2.18,2.18,0,0,1-.3-.7,3.81,3.81,0,0,1-.08-.74,7.14,7.14,0,0,1,.18-1.6A5.11,5.11,0,0,1,18.64,5a3.09,3.09,0,0,1,1-1,2.68,2.68,0,0,1,1.45-.38,2,2,0,0,1,1,.19,1.67,1.67,0,0,1,.6.51,2,2,0,0,1,.29.7,3.05,3.05,0,0,1,.08.72,7.31,7.31,0,0,1-.18,1.62,5.11,5.11,0,0,1-.58,1.44,3.09,3.09,0,0,1-1,1A2.68,2.68,0,0,1,19.81,10.2ZM20,9.48a.91.91,0,0,0,.61-.24,2.22,2.22,0,0,0,.47-.65,4.25,4.25,0,0,0,.33-.93,8.86,8.86,0,0,0,.2-1,9.56,9.56,0,0,0,.07-1,2,2,0,0,0-.18-.9.68.68,0,0,0-.66-.35,1,1,0,0,0-.62.24,2.06,2.06,0,0,0-.47.65,4.51,4.51,0,0,0-.34.92,7.2,7.2,0,0,0-.19,1,9.91,9.91,0,0,0-.07,1.05,2,2,0,0,0,.19.9A.68.68,0,0,0,20,9.48Z" transform="translate(-0.3 -0.91)"/></g></g></svg>