<svg xmlns="http://www.w3.org/2000/svg" viewBox="0 0 63.31 29.88"><defs><style>.cls-1{fill:#fff;}</style></defs><g id="Layer_2" data-name="Layer 2"><g id="Layer_1-2" data-name="Layer 1"><path class="cls-1" d="M35.75,27.51l2.9-5a4.73,4.73,0,0,0-4.1-7.1H28.74a4.73,4.73,0,0,0-4.1,7.1l2.91,5A4.73,4.73,0,0,0,35.75,27.51Z"/><path class="cls-1" d="M26.4,0H4.74A4.74,4.74,0,0,0,.64,7.1L11.47,25.86a4.74,4.74,0,0,0,8.2,0L30.5,7.1A4.74,4.74,0,0,0,26.4,0ZM15.57,18.2a6.94,6.94,0,1,1,6.94-6.94A6.94,6.94,0,0,1,15.57,18.2Z"/><path class="cls-1" d="M58.57,0H36.91a4.74,4.74,0,0,0-4.1,7.1L43.64,25.86a4.74,4.74,0,0,0,8.2,0L62.67,7.1A4.74,4.74,0,0,0,58.57,0ZM47.74,18.2a6.94,6.94,0,1,1,6.94-6.94A6.94,6.94,0,0,1,47.74,18.2Z"/></g></g></svg>